# xmcd
#
# Track frame offsets:
#       150
#       13925
#       23715
#       35982
#       43975
#       57355
#       68525
#       77325
#       86123
#       96368
#       106673
#       118728
#       128114
#       136266
#       145871
#
# Disc length: 2134 seconds
#
# Revision: 0
# Processed by: cddbd v1.4PL0 Copyright (c) Steve Scherf et al.
#
# Submitted via: MusicManager v5.1.0.0
#
DISCID=cd08540f
DTITLE=Willie Nelson - Willie Nelson
DYEAR=1900
DGENRE=country
TTITLE0=Home Is Where Your Happy
TTITLE1=I Didn't Sleep A Wink Last Night
TTITLE2=Shelter Of Your Arms
TTITLE3=Things To Remember
TTITLE4=Everything But You
TTITLE5=I'm Gonna Lose A Lot Of Teardrops
TTITLE6=Why Are You Picking On Me
TTITLE7=The Ghost
TTITLE8=Broken Promises
TTITLE9=Blame It On The Times
TTITLE10=Hapiness Lives Next Door
TTITLE11=Building Heartaches
TTITLE12=Half A Man
TTITLE13=Let's Pretend
TTITLE14=Rainy Day Blues
EXTD=
EXTT0=
EXTT1=
EXTT2=
EXTT3=
EXTT4=
EXTT5=
EXTT6=
EXTT7=
EXTT8=
EXTT9=
EXTT10=
EXTT11=
EXTT12=
EXTT13=
EXTT14=
PLAYORDER=
